<svg width="32" height="32" viewBox="0 0 32 32" fill="none" xmlns="http://www.w3.org/2000/svg">
<g clip-path="url(#clip0_18_207)">
<path d="M16 0C7.16388 0 0 7.16388 0 16C0 24.8361 7.16388 32 16 32C24.8361 32 32 24.8361 32 16C32 7.16388 24.8361 0 16 0ZM20.3896 16.3143H17.631C17.631 16.3953 17.631 16.4636 17.631 16.5318C17.631 19.7668 17.6282 23.0018 17.6267 26.2368C17.6267 26.2951 17.6239 26.3548 17.621 26.4131H13.8471C13.8471 26.1116 13.85 25.8116 13.85 25.5101C13.85 22.5325 13.85 19.5535 13.85 16.5759V16.3185H11.3345C11.3303 16.2474 11.3246 16.1962 11.3246 16.1436C11.3246 15.1013 11.3274 14.0576 11.3203 13.0153C11.3203 12.8717 11.363 12.8347 11.5023 12.8361C12.2233 12.8418 12.9428 12.8347 13.6637 12.8418C13.8173 12.8432 13.85 12.792 13.8514 12.6484C13.8557 11.7128 13.8514 10.7771 13.8841 9.84287C13.9083 9.16317 14.0505 8.50053 14.3662 7.88624C14.7117 7.21223 15.2506 6.75293 15.9659 6.52542C16.3626 6.39886 16.7807 6.34483 17.1902 6.25951C17.2471 6.24671 17.3039 6.23391 17.3608 6.22112H20.748C20.7437 6.28511 20.738 6.34909 20.738 6.41308C20.738 7.4497 20.7352 8.48774 20.7408 9.52435C20.7408 9.66939 20.6982 9.70494 20.5588 9.70352C19.9943 9.69783 19.4298 9.69783 18.8667 9.70921C18.6747 9.71347 18.4813 9.74191 18.2922 9.77888C17.9367 9.84572 17.6765 10.1344 17.6623 10.5354C17.6353 11.2648 17.6381 11.9957 17.6253 12.7266C17.6225 12.8603 17.7121 12.8375 17.7888 12.8375C18.7074 12.8375 19.626 12.8375 20.546 12.8375H20.7551C20.6314 14.0107 20.5105 15.1554 20.3882 16.3143H20.3896Z" fill="#FF7F18"/>
</g>
<defs>
<clipPath id="clip0_18_207">
<rect width="32" height="32" fill="white"/>
</clipPath>
</defs>
</svg>
