<svg width="32" height="32" viewBox="0 0 32 32" fill="none" xmlns="http://www.w3.org/2000/svg">
<g clip-path="url(#clip0_18_200)">
<path d="M16 0C7.16388 0 0 7.16388 0 16C0 24.8361 7.16388 32 16 32C24.8361 32 32 24.8361 32 16C32 7.16388 24.8361 0 16 0ZM25.8016 16.374C25.7959 16.4124 25.786 16.4493 25.7846 16.4877C25.7433 17.2897 25.7206 18.0931 25.6552 18.8937C25.6082 19.4525 25.5315 20.0114 25.4163 20.5603C25.23 21.449 24.6897 22.0633 23.8351 22.3804C23.4099 22.5382 22.9577 22.5795 22.5112 22.6136C21.621 22.6818 20.7309 22.7416 19.8393 22.7771C18.9321 22.8141 18.022 22.8169 17.1134 22.8368C16.9783 22.8397 16.8432 22.8496 16.7081 22.8567H15.2862C15.2449 22.8511 15.2023 22.8425 15.161 22.8425C14.7032 22.8368 14.2439 22.8425 13.786 22.824C12.5674 22.7771 11.3487 22.733 10.1315 22.6634C9.59118 22.6321 9.04657 22.578 8.51618 22.4714C7.53786 22.2752 6.89086 21.6765 6.61785 20.7138C6.37469 19.855 6.32634 18.9634 6.26946 18.0775C6.23107 17.4732 6.20832 16.8674 6.20263 16.2616C6.1941 15.2165 6.22396 14.1713 6.33203 13.1319C6.39175 12.5617 6.45574 11.9886 6.57661 11.4298C6.79701 10.4131 7.42695 9.74191 8.45076 9.52435C9.06648 9.39353 9.70068 9.34092 10.3306 9.29399C11.1753 9.23285 12.0213 9.19303 12.8674 9.17597C14.2467 9.14895 15.626 9.139 17.0039 9.14184C17.9481 9.14184 18.8923 9.15891 19.8351 9.20014C20.7963 9.24138 21.7576 9.30821 22.716 9.38784C23.0771 9.4177 23.4454 9.47316 23.7867 9.58692C24.7224 9.89975 25.2556 10.5809 25.449 11.5393C25.6722 12.6427 25.722 13.7632 25.7746 14.8838C25.786 15.1241 25.7931 15.3644 25.8031 15.6033V16.3726L25.8016 16.374Z" fill="white"/>
<path d="M14.0391 18.9236C15.7369 17.9424 17.4205 16.9698 19.1198 15.9887C17.4191 15.0061 15.7355 14.0334 14.0391 13.0537V18.9236Z" fill="white"/>
</g>
<defs>
<clipPath id="clip0_18_200">
<rect width="32" height="32" fill="white"/>
</clipPath>
</defs>
</svg>
