<svg width="32" height="32" viewBox="0 0 32 32" fill="none" xmlns="http://www.w3.org/2000/svg">
<g clip-path="url(#clip0_18_203)">
<path d="M16 0C7.16388 0 0 7.16388 0 16C0 24.8361 7.16388 32 16 32C24.8361 32 32 24.8361 32 16C32 7.16388 24.8361 0 16 0ZM25.4149 16.0256C25.4149 17.2741 25.4177 18.5212 25.4149 19.7696C25.4092 22.2538 23.9616 24.3242 21.6111 25.1148C21.0309 25.3096 20.391 25.3935 19.7768 25.4021C17.2641 25.4333 14.7501 25.4177 12.236 25.4149C9.53004 25.4106 7.33878 23.6857 6.72307 21.0551C6.62496 20.6342 6.59367 20.1905 6.59083 19.7568C6.57945 17.2528 6.5823 14.7472 6.58514 12.2432C6.58799 9.53431 8.30288 7.35158 10.9392 6.72449C11.3431 6.62922 11.7682 6.59225 12.1834 6.59083C14.7231 6.57945 17.2641 6.57945 19.8038 6.58656C22.4813 6.59367 24.6868 8.3498 25.2812 10.9577C25.3765 11.3786 25.4035 11.8223 25.4092 12.2574C25.4248 13.5144 25.4149 14.77 25.4149 16.027V16.0256Z" fill="#FF7F18"/>
<path d="M23.6131 11.3274C23.2107 9.51723 21.7105 8.30998 19.8506 8.29718C18.5666 8.28723 17.2839 8.29576 15.9999 8.29576C14.7528 8.29576 13.5043 8.29007 12.2573 8.30003C11.9473 8.30287 11.6302 8.31994 11.3287 8.38677C9.5086 8.79061 8.30277 10.2965 8.29709 12.1763C8.28998 14.7259 8.29282 17.2741 8.29993 19.8237C8.29993 20.1152 8.32695 20.4138 8.39236 20.6968C8.80757 22.5069 10.3035 23.6971 12.1748 23.7028C14.7244 23.7099 17.2726 23.7071 19.8221 23.7014C20.1051 23.7014 20.3952 23.6772 20.6696 23.6161C22.4898 23.2108 23.6956 21.7064 23.6999 19.8265C23.707 17.2769 23.7041 14.7288 23.6984 12.1792C23.6984 11.8962 23.6743 11.6061 23.6131 11.3317V11.3274ZM15.9871 21.1333C13.1631 21.1233 10.8495 18.797 10.8637 15.9801C10.878 13.1646 13.1844 10.8653 15.9971 10.8638C18.8182 10.8624 21.1375 13.1831 21.1332 16.0028C21.1289 18.8254 18.8054 21.1418 15.9871 21.1333ZM21.0365 11.717C20.617 11.7071 20.2772 11.3587 20.28 10.9392C20.2829 10.5098 20.6426 10.16 21.0721 10.1699C21.4915 10.1799 21.8314 10.5283 21.8285 10.9477C21.8257 11.3772 21.4659 11.727 21.0365 11.717Z" fill="#FF7F18"/>
<path d="M16.0142 12.5758C14.1145 12.5673 12.5773 14.0973 12.5759 15.9971C12.5759 17.8869 14.0946 19.4127 15.9844 19.4212C17.8841 19.4297 19.4213 17.8997 19.4227 15.9999C19.4227 14.1101 17.904 12.5844 16.0142 12.5758Z" fill="#FF7F18"/>
</g>
<defs>
<clipPath id="clip0_18_203">
<rect width="32" height="32" fill="white"/>
</clipPath>
</defs>
</svg>
